<svg xmlns="http://www.w3.org/2000/svg" version="1.1" xmlns:xlink="http://www.w3.org/1999/xlink" xmlns:svgjs="http://svgjs.dev/svgjs" width="6054" height="1436" preserveAspectRatio="none" viewBox="0 0 6054 1436"><g mask="url(&quot;#SvgjsMask3879&quot;)" fill="none"><rect width="6054" height="1436" x="0" y="0" fill="url(&quot;#SvgjsLinearGradient3880&quot;)"></rect><path d="M184 1436L1620 0L2194.5 0L758.5 1436z" fill="url(&quot;#SvgjsLinearGradient3881&quot;)"></path><path d="M1128.91 1436L2564.91 0L3155.91 0L1719.91 1436z" fill="url(&quot;#SvgjsLinearGradient3881&quot;)"></path><path d="M2041.8200000000002 1436L3477.82 0L4673.32 0L3237.32 1436z" fill="url(&quot;#SvgjsLinearGradient3881&quot;)"></path><path d="M3124.7300000000005 1436L4560.7300000000005 0L5864.2300000000005 0L4428.2300000000005 1436z" fill="url(&quot;#SvgjsLinearGradient3881&quot;)"></path><path d="M5994 1436L4558 0L3638.5 0L5074.5 1436z" fill="url(&quot;#SvgjsLinearGradient3882&quot;)"></path><path d="M4985.09 1436L3549.09 0L2998.59 0L4434.59 1436z" fill="url(&quot;#SvgjsLinearGradient3882&quot;)"></path><path d="M4036.18 1436L2600.18 0L1890.6799999999998 0L3326.68 1436z" fill="url(&quot;#SvgjsLinearGradient3882&quot;)"></path><path d="M2990.2699999999995 1436L1554.2699999999995 0L219.26999999999953 0L1655.2699999999995 1436z" fill="url(&quot;#SvgjsLinearGradient3882&quot;)"></path><path d="M4928.431595746683 1436L6054 310.43159574668334L6054 1436z" fill="url(&quot;#SvgjsLinearGradient3881&quot;)"></path><path d="M0 1436L1125.5684042533167 1436L 0 310.43159574668334z" fill="url(&quot;#SvgjsLinearGradient3882&quot;)"></path></g><defs><mask id="SvgjsMask3879"><rect width="6054" height="1436" fill="#ffffff"></rect></mask><linearGradient x1="19.07%" y1="180.4%" x2="80.93%" y2="-80.4%" gradientUnits="userSpaceOnUse" id="SvgjsLinearGradient3880"><stop stop-color="rgba(14, 42, 71, 1)" offset="0"></stop><stop stop-color="rgba(226, 241, 255, 1)" offset="0"></stop></linearGradient><linearGradient x1="0%" y1="100%" x2="100%" y2="0%" id="SvgjsLinearGradient3881"><stop stop-color="rgba(109, 185, 255, 1)" offset="0"></stop><stop stop-opacity="0" stop-color="rgba(109, 185, 255, 1)" offset="0.66"></stop></linearGradient><linearGradient x1="100%" y1="100%" x2="0%" y2="0%" id="SvgjsLinearGradient3882"><stop stop-color="rgba(109, 185, 255, 1)" offset="0"></stop><stop stop-opacity="0" stop-color="rgba(109, 185, 255, 1)" offset="0.66"></stop></linearGradient></defs></svg>