<svg xmlns="http://www.w3.org/2000/svg" version="1.1" xmlns:xlink="http://www.w3.org/1999/xlink" xmlns:svgjs="http://svgjs.dev/svgjs" width="1440" height="560" preserveAspectRatio="none" viewBox="0 0 1440 560"><g mask="url(&quot;#SvgjsMask2006&quot;)" fill="none"><rect width="1440" height="560" x="0" y="0" fill="url(&quot;#SvgjsLinearGradient2007&quot;)"></rect><path d="M342.61 573.16C551.22 539.18 657.62 33.82 991.75 31.52 1325.89 29.22 1469.25 252.4 1640.9 255.52" stroke="rgba(52, 157, 255, 1)" stroke-width="2"></path><path d="M315.14 630.9C482.95 625.54 622.1 368.62 933.29 368.37 1244.47 368.12 1394.12 485.45 1551.43 485.97" stroke="rgba(52, 157, 255, 1)" stroke-width="2"></path><path d="M637.64 611.62C815.68 561.75 864.71 72.89 1134.87 64.15 1405.02 55.41 1504.03 186.44 1632.09 187.35" stroke="rgba(52, 157, 255, 1)" stroke-width="2"></path><path d="M917.02 571.06C1050.84 542.88 1074.12 220.9 1314.24 194.98 1554.35 169.06 1603.14 25.12 1711.45 21.38" stroke="rgba(52, 157, 255, 1)" stroke-width="2"></path><path d="M828.19 609.39C981.34 543.45 1004.04 70.33 1211.98 63.93 1419.93 57.53 1484.97 279.93 1595.78 287.93" stroke="rgba(52, 157, 255, 1)" stroke-width="2"></path></g><defs><mask id="SvgjsMask2006"><rect width="1440" height="560" fill="#ffffff"></rect></mask><linearGradient x1="0%" y1="50%" x2="100%" y2="50%" gradientUnits="userSpaceOnUse" id="SvgjsLinearGradient2007"><stop stop-color="rgba(189, 221, 255, 1)" offset="0"></stop><stop stop-color="rgba(243, 243, 243, 1)" offset="1"></stop></linearGradient></defs></svg>