<svg xmlns="http://www.w3.org/2000/svg" version="1.1" xmlns:xlink="http://www.w3.org/1999/xlink" xmlns:svgjs="http://svgjs.dev/svgjs" width="3062" height="1436" preserveAspectRatio="none" viewBox="0 0 3062 1436"><g mask="url(&quot;#SvgjsMask3951&quot;)" fill="none"><rect width="3062" height="1436" x="0" y="0" fill="url(&quot;#SvgjsLinearGradient3952&quot;)"></rect><path d="M199 1436L1635 0L1927.5 0L491.5 1436z" fill="url(&quot;#SvgjsLinearGradient3953&quot;)"></path><path d="M1209.46 1436L2645.46 0L3399.96 0L1963.96 1436z" fill="url(&quot;#SvgjsLinearGradient3953&quot;)"></path><path d="M2889 1436L1453 0L445 0L1881 1436z" fill="url(&quot;#SvgjsLinearGradient3954&quot;)"></path><path d="M1900.54 1436L464.53999999999996 0L-961.96 0L474.03999999999996 1436z" fill="url(&quot;#SvgjsLinearGradient3954&quot;)"></path><path d="M1709.3726312911715 1436L3062 83.3726312911715L3062 1436z" fill="url(&quot;#SvgjsLinearGradient3953&quot;)"></path><path d="M0 1436L1352.6273687088285 1436L 0 83.3726312911715z" fill="url(&quot;#SvgjsLinearGradient3954&quot;)"></path></g><defs><mask id="SvgjsMask3951"><rect width="3062" height="1436" fill="#ffffff"></rect></mask><linearGradient x1="13.28%" y1="128.31%" x2="86.72%" y2="-28.31%" gradientUnits="userSpaceOnUse" id="SvgjsLinearGradient3952"><stop stop-color="rgba(14, 42, 71, 1)" offset="0"></stop><stop stop-color="rgba(226, 241, 255, 1)" offset="0"></stop></linearGradient><linearGradient x1="0%" y1="100%" x2="100%" y2="0%" id="SvgjsLinearGradient3953"><stop stop-color="rgba(109, 185, 255, 1)" offset="0"></stop><stop stop-opacity="0" stop-color="rgba(109, 185, 255, 1)" offset="0.66"></stop></linearGradient><linearGradient x1="100%" y1="100%" x2="0%" y2="0%" id="SvgjsLinearGradient3954"><stop stop-color="rgba(109, 185, 255, 1)" offset="0"></stop><stop stop-opacity="0" stop-color="rgba(109, 185, 255, 1)" offset="0.66"></stop></linearGradient></defs></svg>